<?xml version="1.0" standalone="no"?>
<!DOCTYPE svg PUBLIC "-//W3C//DTD SVG 20010904//EN"
 "http://www.w3.org/TR/2001/REC-SVG-20010904/DTD/svg10.dtd">
<svg version="1.0" xmlns="http://www.w3.org/2000/svg"
 width="1024.000000pt" height="1024.000000pt" viewBox="0 0 1024.000000 1024.000000"
 preserveAspectRatio="xMidYMid meet">
<metadata>
Created by potrace 1.14, written by Peter Selinger 2001-2017
</metadata>
<g transform="translate(0.000000,1024.000000) scale(0.100000,-0.100000)"
fill="#000000" stroke="none">
<path d="M4630 10219 c-655 -69 -1226 -234 -1790 -516 -193 -96 -262 -134
-385 -211 -288 -180 -476 -320 -735 -547 -25 -21 -122 -116 -216 -210 -240
-240 -424 -461 -606 -730 -685 -1010 -988 -2204 -868 -3407 97 -963 489 -1919
1099 -2678 369 -459 852 -879 1361 -1184 133 -79 169 -99 350 -189 913 -458
1924 -631 2931 -503 185 24 433 72 624 121 1270 327 2347 1115 3052 2235 119
189 145 236 263 475 504 1026 650 2169 420 3281 -45 213 -89 380 -156 579
-208 628 -535 1209 -960 1705 -130 153 -410 433 -559 560 -809 692 -1782 1108
-2850 1218 -253 27 -732 27 -975 1z"/>
</g>
</svg>
